<svg xmlns="http://www.w3.org/2000/svg" viewBox="0 0 1557 419.57"><defs><style>.cls-1{fill:#ccc;}.cls-2{fill:#b3b3b3;}.cls-3{fill:gray;}</style></defs><title>mountains</title><g id="Layer_2" data-name="Layer 2"><g id="Layer_1-2" data-name="Layer 1"><polygon class="cls-1" points="279.66 152.27 396.69 144.29 444.56 120.35 588.19 48.54 671.97 60.51 767.72 96.42 803.63 120.35 1019.07 204.13 1174.66 347.76 0 347.76 0 156.26 279.66 152.27"/><polygon class="cls-2" points="1557 347.1 1485.19 239.38 1449.28 203.47 1353.53 155.59 1329.59 131.66 1257.78 95.75 1233.84 107.72 1138.09 119.69 1128.66 128.7 1090.22 95.75 1006.43 11.97 934.62 0 910.68 35.91 874.78 47.88 850.84 83.78 802.96 95.75 755.09 155.59 468.5 347.76 899.68 347.47 899.38 347.76 1557 347.1"/><path class="cls-3" d="M277,419.57V329.14l71.15-6,95.75-35.91,227.41-47.88,143.63-23.94,131.66,12s94.42-13.3,95.75-12,107.72,47.88,107.72,47.88l179.53,35.91s58.51,22.61,59.84,23.94,167.56-12,167.56-12V418.91H279"/></g></g></svg>