<svg xmlns="http://www.w3.org/2000/svg" viewBox="0 0 486.18 215.04"><defs><style>.cls-1{fill:#f25936;}.cls-2{fill:#f68b72;}.cls-3{fill:#f9b6a7;}.cls-4,.cls-5{fill:none;stroke-miterlimit:10;}.cls-4{stroke:#b1ecef;stroke-width:2.84px;}.cls-5{stroke:#f68b72;stroke-width:3.55px;}.cls-6{fill:#fcd4cb;}</style></defs><title>tents</title><g id="Layer_2" data-name="Layer 2"><g id="Layer_1-2" data-name="Layer 1"><rect class="cls-1" x="393.14" y="183.19" width="96.01" height="12.8" rx="6.4" ry="6.4" transform="translate(101.87 -150.18) rotate(21.79)"/><rect class="cls-1" x="393.14" y="183.19" width="96.01" height="12.8" rx="6.4" ry="6.4" transform="translate(921.15 201.91) rotate(158.21)"/><path class="cls-2" d="M461.65,128.28c-1.86-2-4.76-4.78-6,1.42a14.36,14.36,0,0,1-2.24,5,31.26,31.26,0,0,0-6.19-12.5,25.92,25.92,0,0,1-5-13.89,1.43,1.43,0,0,0-2.39-.94,40.47,40.47,0,0,0-13.21,30,20.64,20.64,0,0,1-5.41-8.45,1.89,1.89,0,0,0-3.36-.45c-.17.25-.32.5-.46.75-6.49,11.48-9.62,25.43-6.73,38.4,4.83,21.73,36.77,27.8,53.68,14.15C480.91,168.42,475.65,143.55,461.65,128.28Z"/><path class="cls-3" d="M456.55,144.16c-1.38-1.5-3.51-3.53-4.42,1a10.61,10.61,0,0,1-1.65,3.72,23.09,23.09,0,0,0-4.57-9.23,19.15,19.15,0,0,1-3.7-10.26,1.06,1.06,0,0,0-1.76-.7,29.89,29.89,0,0,0-9.76,22.15,15.24,15.24,0,0,1-4-6.24,1.4,1.4,0,0,0-2.48-.34c-.12.19-.24.37-.34.55-4.8,8.48-7.1,18.78-5,28.37,3.57,16,27.16,20.54,39.65,10.45C470.77,173.81,466.88,155.44,456.55,144.16Z"/><path class="cls-1" d="M428.69,111.57a7.65,7.65,0,0,0,0-11.88A7.65,7.65,0,0,0,428.69,111.57Z"/><path class="cls-1" d="M473.92,136.21a7.65,7.65,0,0,0,0-11.88C472.2,125.73,470.16,133.14,473.92,136.21Z"/><path class="cls-1" d="M407.08,138.54a5.51,5.51,0,0,0,0-8.56C405.83,131,404.36,136.34,407.08,138.54Z"/><path class="cls-1" d="M454.18,120.13a5.51,5.51,0,0,0,0-8.56A5.51,5.51,0,0,0,454.18,120.13Z"/><path class="cls-1" d="M189.14,0c89.54,0,147.1,140.71,147.1,140.71s-102.33-6.4-140.71,25.58C195.54,166.29,208.33,6.4,189.14,0Z"/><path class="cls-4" d="M226.36,13.24"/><path class="cls-2" d="M189.14,0c19.19,6.4,6.4,166.29,6.4,166.29s-102.33-51.17-140.71-32C54.83,134.31,99.6,0,189.14,0Z"/><line class="cls-5" x1="275.84" y1="49.03" x2="378.18" y2="157.76"/><line class="cls-5" x1="109.9" y1="42.28" x2="1.18" y2="138.22"/><line class="cls-5" x1="205.49" y1="55.43" x2="199.45" y2="214.97"/><path class="cls-6" d="M199,39.09h0c.81,14.33.85,31.09.51,47.66l-.42.67h.4c-.86,40.12-4,78.88-4,78.88a72.23,72.23,0,0,1,16.3-9.93,160.92,160.92,0,0,1-1.93-22.89c-.22-8.89-2.16-35.26-3.7-57.41l25.21-40.18,57.21,32.33c.19.51,30.91,69,31.6,72,9.85.11,16,.49,16,.49A377.5,377.5,0,0,0,295,68.65h0l-1-1.39,0,0q-2-2.65-4-5.3l0,0h0C264.75,29.77,230.33,0,189.14,0,194.93,1.93,197.81,17.82,199,39.09Zm.09-34.82s12.79,0,25.58,12.79c0,0-12.79,0-19.19,6.4C201.91,27,205.49,10.66,199.09,4.26Z"/></g></g></svg>