<svg xmlns="http://www.w3.org/2000/svg" viewBox="0 0 1242.31 538"><defs><style>.cls-1{fill:#f25936;}</style></defs><title>trees</title><g id="Layer_2" data-name="Layer 2"><g id="Layer_1-2" data-name="Layer 1"><path class="cls-1" d="M133.45,225c-18.51,0-41-27.94-54.57-47.66h45c-15.86,0-35.14-27.94-46.78-47.66h37.24C94,129.72,66.72,63,66.72,63s-27.23,66.72-47.66,66.72H56.31c-11.63,19.72-30.91,47.66-46.78,47.66h45C41,197.1,18.51,225,0,225H63.28L57.19,511H76.26L70.17,225Z"/><path class="cls-1" d="M405.31,261.38c-11.28,0-25-14-33.25-23.94H399.5c-9.67,0-21.41-14-28.5-23.94h22.69c-12.45,0-29-33.51-29-33.51s-16.59,33.51-29,33.51h22.69c-7.09,9.9-18.83,23.94-28.5,23.94h27.44c-8.27,9.9-22,23.94-33.25,23.94h38.55L358.85,405h11.62l-3.71-143.62Z"/><path class="cls-1" d="M204.15,156.72h16.09c0-47.66-38.13-66.72-38.13-66.72S144,109.06,144,156.72h16.09C151.62,167.45,144,183,144,204.38h9.7a76.33,76.33,0,0,0-9.7,38.13h34.88L172.57,538h19.06l-6.29-295.49h34.88a76.33,76.33,0,0,0-9.7-38.13h9.7C220.23,183,212.59,167.45,204.15,156.72Z"/><path class="cls-1" d="M333.62,133.45c-12.3-6.15-24.6-40.08-31.78-63.38,10.84,10.47,31.78,15.72,31.78,15.72C314.55,76.26,295.49,0,295.49,0s-19.06,76.26-38.13,85.79c0,0,20.94-5.24,31.78-15.72-7.18,23.3-19.48,57.23-31.78,63.38,0,0,27.37-6.85,35.73-20.53L286,448H305l-7.13-335.09C306.25,126.6,333.62,133.45,333.62,133.45Z"/><path class="cls-1" d="M1242.31,290.11c-8.18,0-18.12-11.23-24.11-19.15h19.9c-7,0-15.53-11.23-20.67-19.15h16.46c-9,0-21.06-26.81-21.06-26.81s-12,26.81-21.06,26.81h16.46c-5.14,7.92-13.66,19.15-20.67,19.15h19.9c-6,7.92-15.93,19.15-24.11,19.15h28L1208.61,405H1217l-2.69-114.89Z"/><path class="cls-1" d="M1004.31,254.11c-8.18,0-18.12-11.23-24.11-19.15h19.9c-7,0-15.53-11.23-20.67-19.15h16.46c-9,0-21.06-26.81-21.06-26.81s-12,26.81-21.06,26.81h16.46c-5.14,7.92-13.66,19.15-20.67,19.15h19.9c-6,7.92-15.93,19.15-24.11,19.15h28L970.61,369H979l-2.69-114.89Z"/><path class="cls-1" d="M1029.1,147.06h29.56c-10.41,0-23.06-18.34-30.7-31.28h24.44c-13.4,0-31.28-43.79-31.28-43.79s-17.87,43.79-31.28,43.79h24.44c-7.63,12.94-20.29,31.28-30.7,31.28h29.56c-8.91,12.94-23.67,31.28-35.81,31.28h41.52l-4,187.66h12.51l-4-187.66h41.52C1052.77,178.34,1038,160,1029.1,147.06Z"/><path class="cls-1" d="M1196.28,159.57c-8.07-4-16.14-26.3-20.86-41.59,7.11,6.87,20.86,10.31,20.86,10.31-12.51-6.26-25-56.3-25-56.3s-12.51,50-25,56.3c0,0,13.74-3.44,20.86-10.31-4.71,15.29-12.78,37.55-20.86,41.59,0,0,18-4.49,23.44-13.48L1165,366h12.51l-4.68-219.9C1178.32,155.08,1196.28,159.57,1196.28,159.57Z"/><path class="cls-1" d="M1132.65,217.79h10.56a49.69,49.69,0,0,0-25-43.79,49.69,49.69,0,0,0-25,43.79h10.56a49.44,49.44,0,0,0-10.56,31.28h6.37a50.09,50.09,0,0,0-6.37,25h22.89L1111.94,468h12.51l-4.13-193.92h22.89a50.09,50.09,0,0,0-6.37-25h6.37A49.44,49.44,0,0,0,1132.65,217.79Z"/><path class="cls-1" d="M1064.26,225s-12.51,36.26-25,40.79c0,0,13.74-2.49,20.85-7.47-4.71,11.08-12.78,27.21-20.85,30.13,0,0,18-3.26,23.44-9.76L1058,438h12.51l-4.68-159.32c5.48,6.51,23.44,9.76,23.44,9.76-8.07-2.92-16.14-19.05-20.85-30.13,7.12,5,20.85,7.47,20.85,7.47C1076.77,261.26,1064.26,225,1064.26,225Z"/></g></g></svg>